<svg width="213" height="146" viewBox="0 0 213 146" fill="none" xmlns="http://www.w3.org/2000/svg">
<path d="M15.45 118.15L14.7706 118.884L14.778 118.891L15.45 118.15ZM8.55 84.55L9.53459 84.725L9.53578 84.718L8.55 84.55ZM14.1 58.3L15.0695 58.5452L15.0718 58.5358L14.1 58.3ZM82.35 25.15L81.6634 25.877L81.6703 25.8835L81.6773 25.8899L82.35 25.15ZM89.55 58.3L88.5684 58.1091L88.5662 58.1205L88.5642 58.132L89.55 58.3ZM84 84.55L83.0305 84.3048L83.029 84.3108L84 84.55ZM67.8 115.45L68.4762 116.187L68.4766 116.186L67.8 115.45ZM58.5 106L59.1849 106.729L59.1849 106.729L58.5 106ZM69.75 83.8L68.7805 83.5547L68.7793 83.5597L69.75 83.8ZM75 59.05L75.9857 59.2183L75.9864 59.2144L75 59.05ZM39.45 36.85L38.7651 36.1214L38.7651 36.1214L39.45 36.85ZM28.35 59.05L29.3179 59.3014L29.3205 59.2913L29.3229 59.2812L28.35 59.05ZM22.95 83.8L21.9661 83.6211L21.9648 83.6283L21.9636 83.6356L22.95 83.8ZM25.95 108.85L25.2429 109.557L25.2429 109.557L25.95 108.85ZM38.85 124.5C28.7993 124.5 21.2758 122.086 16.122 117.409L14.778 118.891C20.4242 124.014 28.5007 126.5 38.85 126.5V124.5ZM16.1294 117.416C10.9933 112.661 8.35 105.614 8.35 96.1H6.35C6.35 105.986 9.10668 113.639 14.7706 118.884L16.1294 117.416ZM8.35 96.1C8.35 92.9777 8.74087 89.1896 9.53456 84.725L7.56544 84.375C6.75913 88.9104 6.35 92.8223 6.35 96.1H8.35ZM9.53578 84.718C11.0313 75.9441 12.8759 67.2198 15.0695 58.5452L13.1305 58.0548C10.9241 66.7802 9.06866 75.5559 7.56422 84.382L9.53578 84.718ZM15.0718 58.5358C18.3428 45.0553 23.6193 35.0593 30.8266 28.4363L29.4734 26.9637C21.8807 33.9407 16.4572 44.3447 13.1282 58.0642L15.0718 58.5358ZM30.8266 28.4363C38.009 21.8363 47.4017 18.5 59.1 18.5V16.5C46.9983 16.5 37.091 19.9636 29.4734 26.9637L30.8266 28.4363ZM59.1 18.5C69.0381 18.5 76.5073 21.0074 81.6634 25.877L83.0366 24.423C77.3927 19.0926 69.3619 16.5 59.1 16.5V18.5ZM81.6773 25.8899C86.91 30.6469 89.6 37.6909 89.6 47.2H91.6C91.6 37.3091 88.79 29.6531 83.0227 24.4101L81.6773 25.8899ZM89.6 47.2C89.6 50.9382 89.2557 54.5742 88.5684 58.1091L90.5316 58.4909C91.2443 54.8257 91.6 51.0617 91.6 47.2H89.6ZM88.5642 58.132C87.0687 66.9059 85.2241 75.6302 83.0305 84.3048L84.9695 84.7952C87.1759 76.0698 89.0313 67.2941 90.5358 58.468L88.5642 58.132ZM83.029 84.3108C79.6574 97.9956 74.33 108.091 67.1234 114.714L68.4766 116.186C76.07 109.209 81.5426 98.7044 84.971 84.7892L83.029 84.3108ZM67.1238 114.713C60.0456 121.21 50.6553 124.5 38.85 124.5V126.5C51.0447 126.5 60.9544 123.09 68.4762 116.187L67.1238 114.713ZM39.45 114.05C47.3709 114.05 53.9763 111.625 59.1849 106.729L57.8151 105.271C53.0237 109.775 46.9291 112.05 39.45 112.05V114.05ZM59.1849 106.729C64.3801 101.845 68.1967 94.2373 70.7207 84.0403L68.7793 83.5597C66.3033 93.5627 62.6199 100.755 57.8151 105.271L59.1849 106.729ZM70.7195 84.0453C72.8257 75.7206 74.5812 67.4449 75.9857 59.2183L74.0143 58.8817C72.6188 67.0551 70.8743 75.2794 68.7806 83.5547L70.7195 84.0453ZM75.9864 59.2144C76.791 54.387 77.2 50.3769 77.2 47.2H75.2C75.2 50.2231 74.809 54.113 74.0136 58.8856L75.9864 59.2144ZM77.2 47.2C77.2 41.0693 75.7721 36.3579 72.7071 33.2929L71.2929 34.7071C73.8279 37.2421 75.2 41.3307 75.2 47.2H77.2ZM72.7071 33.2929C69.6395 30.2253 64.8751 28.8 58.65 28.8V30.8C64.6249 30.8 68.7605 32.1747 71.2929 34.7071L72.7071 33.2929ZM58.65 28.8C50.633 28.8 43.9762 31.223 38.7651 36.1214L40.1349 37.5786C44.9238 33.077 51.067 30.8 58.65 30.8V28.8ZM38.7651 36.1214C33.5668 41.0078 29.8007 48.6196 27.3771 58.8188L29.3229 59.2812C31.6993 49.2804 35.3332 42.0922 40.1349 37.5786L38.7651 36.1214ZM27.3821 58.7986C25.3752 66.5253 23.57 74.7997 21.9661 83.6211L23.9339 83.9789C25.53 75.2003 27.3248 66.9747 29.3179 59.3014L27.3821 58.7986ZM21.9636 83.6356C21.1594 88.461 20.75 92.4218 20.75 95.5H22.75C22.75 92.5782 23.1406 88.739 23.9364 83.9644L21.9636 83.6356ZM20.75 95.5C20.75 101.725 22.1753 106.489 25.2429 109.557L26.6571 108.143C24.1247 105.61 22.75 101.475 22.75 95.5H20.75ZM25.2429 109.557C28.313 112.627 33.1305 114.05 39.45 114.05V112.05C33.3695 112.05 29.187 110.673 26.6571 108.143L25.2429 109.557ZM123.729 123.1L122.915 123.681L122.963 123.749L123.022 123.807L123.729 123.1ZM123.279 120.55L122.301 120.342L122.298 120.354L123.279 120.55ZM140.979 37.3L141.957 37.508L142.463 35.1263L140.429 36.4646L140.979 37.3ZM112.479 56.05L111.929 55.2146L111.924 55.2179L112.479 56.05ZM107.679 55.45L108.573 55.0028L108.564 54.9833L108.553 54.9644L107.679 55.45ZM104.679 50.05L105.553 49.5644L105.545 49.5498L105.536 49.5355L104.679 50.05ZM106.479 45.25L105.927 44.4159L105.924 44.4179L106.479 45.25ZM144.579 20.05L144.083 19.1818L144.054 19.1979L144.027 19.2159L144.579 20.05ZM146.229 19.3L146.471 20.2701L146.537 20.2537L146.6 20.2285L146.229 19.3ZM157.779 19.9L157.011 20.5402L157.04 20.575L157.072 20.6071L157.779 19.9ZM158.379 22.45L159.357 22.6593L159.36 22.6441L159.363 22.6289L158.379 22.45ZM137.379 120.55L136.401 120.341L136.398 120.354L137.379 120.55ZM135.879 123.1L136.53 123.859L136.537 123.853L135.879 123.1ZM126.129 123C125.343 123 124.815 122.772 124.436 122.393L123.022 123.807C123.843 124.628 124.915 125 126.129 125V123ZM124.543 122.519C124.233 122.085 124.103 121.53 124.259 120.746L122.298 120.354C122.055 121.57 122.225 122.715 122.915 123.681L124.543 122.519ZM124.257 120.758L141.957 37.508L140.001 37.092L122.301 120.342L124.257 120.758ZM140.429 36.4646L111.929 55.2146L113.029 56.8854L141.529 38.1354L140.429 36.4646ZM111.924 55.2179C111.105 55.7638 110.501 55.95 110.079 55.95V57.95C111.057 57.95 112.052 57.5362 113.034 56.882L111.924 55.2179ZM110.079 55.95C109.685 55.95 109.4 55.8621 109.184 55.727C108.967 55.5913 108.756 55.369 108.573 55.0028L106.784 55.8972C107.101 56.531 107.541 57.0587 108.124 57.423C108.708 57.7879 109.373 57.95 110.079 57.95V55.95ZM108.553 54.9644L105.553 49.5644L103.805 50.5356L106.805 55.9356L108.553 54.9644ZM105.536 49.5355C105.29 49.1241 105.229 48.8541 105.229 48.7H103.229C103.229 49.3459 103.468 49.9759 103.821 50.5645L105.536 49.5355ZM105.229 48.7C105.229 47.8544 105.694 46.9749 107.034 46.082L105.924 44.4179C104.264 45.5251 103.229 46.9456 103.229 48.7H105.229ZM107.031 46.0841L145.131 20.8841L144.027 19.2159L105.927 44.4159L107.031 46.0841ZM145.075 20.9182C145.756 20.5291 146.209 20.3357 146.471 20.2701L145.986 18.3299C145.449 18.4642 144.802 18.7709 144.083 19.1818L145.075 20.9182ZM146.6 20.2285C146.939 20.0928 147.45 20 148.179 20V18C147.308 18 146.518 18.1072 145.858 18.3715L146.6 20.2285ZM148.179 20H155.529V18H148.179V20ZM155.529 20C156.322 20 156.752 20.2292 157.011 20.5402L158.547 19.2598C157.806 18.3708 156.736 18 155.529 18V20ZM157.072 20.6071C157.369 20.9041 157.557 21.3806 157.395 22.2711L159.363 22.6289C159.601 21.3194 159.389 20.0959 158.486 19.1929L157.072 20.6071ZM157.401 22.2407L136.401 120.341L138.357 120.759L159.357 22.6593L157.401 22.2407ZM136.398 120.354C136.243 121.128 135.862 121.786 135.22 122.347L136.537 123.853C137.496 123.014 138.114 121.972 138.359 120.746L136.398 120.354ZM135.228 122.341C134.725 122.772 134.112 123 133.329 123V125C134.546 125 135.633 124.628 136.53 123.859L135.228 122.341ZM133.329 123H126.129V125H133.329V123ZM160.014 123.1L159.2 123.681L159.222 123.712L159.245 123.74L160.014 123.1ZM159.564 120.55L158.584 120.351L158.583 120.354L159.564 120.55ZM161.664 110.2L162.644 110.399L162.644 110.396L161.664 110.2ZM178.464 107.65L177.65 108.231L177.676 108.267L177.704 108.301L178.464 107.65ZM179.064 110.2L180.041 110.412L180.043 110.404L180.044 110.396L179.064 110.2ZM176.814 120.55L175.836 120.338L175.835 120.346L175.833 120.354L176.814 120.55ZM175.314 123.1L175.914 123.9L175.944 123.877L175.972 123.853L175.314 123.1ZM162.264 123C161.471 123 161.041 122.771 160.782 122.46L159.245 123.74C159.986 124.629 161.057 125 162.264 125V123ZM160.827 122.519C160.518 122.085 160.388 121.53 160.544 120.746L158.583 120.354C158.34 121.57 158.51 122.715 159.2 123.681L160.827 122.519ZM160.544 120.749L162.644 110.399L160.684 110.001L158.584 120.351L160.544 120.749ZM162.644 110.396C162.799 109.622 163.18 108.964 163.822 108.403L162.505 106.897C161.547 107.736 160.928 108.778 160.683 110.004L162.644 110.396ZM163.822 108.403C164.452 107.851 165.122 107.6 165.864 107.6V105.6C164.605 105.6 163.475 106.049 162.505 106.897L163.822 108.403ZM165.864 107.6H176.214V105.6H165.864V107.6ZM176.214 107.6C176.951 107.6 177.37 107.839 177.65 108.231L179.277 107.069C178.557 106.061 177.477 105.6 176.214 105.6V107.6ZM177.704 108.301C178.081 108.741 178.23 109.269 178.083 110.004L180.044 110.396C180.297 109.131 180.046 107.959 179.223 106.999L177.704 108.301ZM178.086 109.988L175.836 120.338L177.791 120.762L180.041 110.412L178.086 109.988ZM175.833 120.354C175.678 121.128 175.297 121.786 174.655 122.347L175.972 123.853C176.93 123.014 177.549 121.972 177.794 120.746L175.833 120.354ZM174.714 122.3C174.087 122.77 173.397 123 172.614 123V125C173.83 125 174.941 124.63 175.914 123.9L174.714 122.3ZM172.614 123H162.264V125H172.614V123Z" fill="#5D6268"/>
</svg>
