<svg width="268" height="146" viewBox="0 0 268 146" fill="none" xmlns="http://www.w3.org/2000/svg">
<path d="M15.45 118.15L14.7706 118.884L14.778 118.891L15.45 118.15ZM8.55 84.55L9.53459 84.725L9.53578 84.718L8.55 84.55ZM14.1 58.3L15.0695 58.5452L15.0718 58.5358L14.1 58.3ZM82.35 25.15L81.6634 25.877L81.6703 25.8835L81.6773 25.8899L82.35 25.15ZM89.55 58.3L88.5684 58.1091L88.5662 58.1205L88.5642 58.132L89.55 58.3ZM84 84.55L83.0305 84.3048L83.029 84.3108L84 84.55ZM67.8 115.45L68.4762 116.187L68.4766 116.186L67.8 115.45ZM58.5 106L59.1849 106.729L59.1849 106.729L58.5 106ZM69.75 83.8L68.7805 83.5547L68.7793 83.5597L69.75 83.8ZM75 59.05L75.9857 59.2183L75.9864 59.2144L75 59.05ZM39.45 36.85L38.7651 36.1214L38.7651 36.1214L39.45 36.85ZM28.35 59.05L29.3179 59.3014L29.3205 59.2913L29.3229 59.2812L28.35 59.05ZM22.95 83.8L21.9661 83.6211L21.9648 83.6283L21.9636 83.6356L22.95 83.8ZM25.95 108.85L25.2429 109.557L25.2429 109.557L25.95 108.85ZM38.85 124.5C28.7993 124.5 21.2758 122.086 16.122 117.409L14.778 118.891C20.4242 124.014 28.5007 126.5 38.85 126.5V124.5ZM16.1294 117.416C10.9933 112.661 8.35 105.614 8.35 96.1H6.35C6.35 105.986 9.10668 113.639 14.7706 118.884L16.1294 117.416ZM8.35 96.1C8.35 92.9777 8.74087 89.1896 9.53456 84.725L7.56544 84.375C6.75913 88.9104 6.35 92.8223 6.35 96.1H8.35ZM9.53578 84.718C11.0313 75.9441 12.8759 67.2198 15.0695 58.5452L13.1305 58.0548C10.9241 66.7802 9.06866 75.5559 7.56422 84.382L9.53578 84.718ZM15.0718 58.5358C18.3428 45.0553 23.6193 35.0593 30.8266 28.4363L29.4734 26.9637C21.8807 33.9407 16.4572 44.3447 13.1282 58.0642L15.0718 58.5358ZM30.8266 28.4363C38.009 21.8363 47.4017 18.5 59.1 18.5V16.5C46.9983 16.5 37.091 19.9636 29.4734 26.9637L30.8266 28.4363ZM59.1 18.5C69.0381 18.5 76.5073 21.0074 81.6634 25.877L83.0366 24.423C77.3927 19.0926 69.3619 16.5 59.1 16.5V18.5ZM81.6773 25.8899C86.91 30.6469 89.6 37.6909 89.6 47.2H91.6C91.6 37.3091 88.79 29.6531 83.0227 24.4101L81.6773 25.8899ZM89.6 47.2C89.6 50.9382 89.2557 54.5742 88.5684 58.1091L90.5316 58.4909C91.2443 54.8257 91.6 51.0617 91.6 47.2H89.6ZM88.5642 58.132C87.0687 66.9059 85.2241 75.6302 83.0305 84.3048L84.9695 84.7952C87.1759 76.0698 89.0313 67.2941 90.5358 58.468L88.5642 58.132ZM83.029 84.3108C79.6574 97.9956 74.33 108.091 67.1234 114.714L68.4766 116.186C76.07 109.209 81.5426 98.7044 84.971 84.7892L83.029 84.3108ZM67.1238 114.713C60.0456 121.21 50.6553 124.5 38.85 124.5V126.5C51.0447 126.5 60.9544 123.09 68.4762 116.187L67.1238 114.713ZM39.45 114.05C47.3709 114.05 53.9763 111.625 59.1849 106.729L57.8151 105.271C53.0237 109.775 46.9291 112.05 39.45 112.05V114.05ZM59.1849 106.729C64.3801 101.845 68.1967 94.2373 70.7207 84.0403L68.7793 83.5597C66.3033 93.5627 62.6199 100.755 57.8151 105.271L59.1849 106.729ZM70.7195 84.0453C72.8257 75.7206 74.5812 67.4449 75.9857 59.2183L74.0143 58.8817C72.6188 67.0551 70.8743 75.2794 68.7806 83.5547L70.7195 84.0453ZM75.9864 59.2144C76.791 54.387 77.2 50.3769 77.2 47.2H75.2C75.2 50.2231 74.809 54.113 74.0136 58.8856L75.9864 59.2144ZM77.2 47.2C77.2 41.0693 75.7721 36.3579 72.7071 33.2929L71.2929 34.7071C73.8279 37.2421 75.2 41.3307 75.2 47.2H77.2ZM72.7071 33.2929C69.6395 30.2253 64.8751 28.8 58.65 28.8V30.8C64.6249 30.8 68.7605 32.1747 71.2929 34.7071L72.7071 33.2929ZM58.65 28.8C50.633 28.8 43.9762 31.223 38.7651 36.1214L40.1349 37.5786C44.9238 33.077 51.067 30.8 58.65 30.8V28.8ZM38.7651 36.1214C33.5668 41.0078 29.8007 48.6196 27.3771 58.8188L29.3229 59.2812C31.6993 49.2804 35.3332 42.0922 40.1349 37.5786L38.7651 36.1214ZM27.3821 58.7986C25.3752 66.5253 23.57 74.7997 21.9661 83.6211L23.9339 83.9789C25.53 75.2003 27.3248 66.9747 29.3179 59.3014L27.3821 58.7986ZM21.9636 83.6356C21.1594 88.461 20.75 92.4218 20.75 95.5H22.75C22.75 92.5782 23.1406 88.739 23.9364 83.9644L21.9636 83.6356ZM20.75 95.5C20.75 101.725 22.1753 106.489 25.2429 109.557L26.6571 108.143C24.1247 105.61 22.75 101.475 22.75 95.5H20.75ZM25.2429 109.557C28.313 112.627 33.1305 114.05 39.45 114.05V112.05C33.3695 112.05 29.187 110.673 26.6571 108.143L25.2429 109.557ZM95.8289 123.1L95.0152 123.681L95.0368 123.712L95.0607 123.74L95.8289 123.1ZM95.3789 120.55L94.4051 120.323L94.4014 120.338L94.3983 120.354L95.3789 120.55ZM96.4289 116.05L97.4027 116.277L97.4092 116.249L97.4141 116.221L96.4289 116.05ZM101.529 109.45L102.102 110.269L102.134 110.247L102.164 110.223L101.529 109.45ZM141.129 76.9L140.547 76.0869L140.52 76.1063L140.494 76.1275L141.129 76.9ZM159.729 61.45L158.986 60.781L158.986 60.781L159.729 61.45ZM166.629 48.7L165.655 48.4709L165.653 48.4831L166.629 48.7ZM163.029 33.4L162.365 34.1474L162.379 34.1604L162.394 34.1727L163.029 33.4ZM135.879 35.05L135.248 34.2744L135.248 34.2744L135.879 35.05ZM126.429 49.15L127.339 49.5638L127.36 49.5183L127.376 49.471L126.429 49.15ZM112.479 51.85L111.711 52.4902L111.74 52.525L111.772 52.5571L112.479 51.85ZM112.029 49.6L111.058 49.3618L111.055 49.3724L111.053 49.3831L112.029 49.6ZM119.529 34.3L120.327 34.9026L120.333 34.8948L119.529 34.3ZM133.929 22.15L134.394 23.0353L134.399 23.0323L133.929 22.15ZM175.029 23.8L175.712 23.0695L175.712 23.0695L175.029 23.8ZM181.179 48.4L180.206 48.1684L180.203 48.1815L180.2 48.1948L181.179 48.4ZM172.929 65.35L172.157 64.7142L172.15 64.7234L172.929 65.35ZM155.079 81.4L154.496 80.5877L154.465 80.6099L154.436 80.6344L155.079 81.4ZM119.379 111.4L118.736 110.634L116.635 112.4H119.379V111.4ZM168.729 112.3L167.961 112.94L167.961 112.94L168.729 112.3ZM169.179 114.85L170.162 115.031L170.163 115.029L169.179 114.85ZM168.129 120.55L169.109 120.746L169.111 120.739L169.112 120.731L168.129 120.55ZM166.479 123.1L167.079 123.9L167.086 123.895L167.093 123.889L166.479 123.1ZM98.0789 123C97.2858 123 96.8563 122.771 96.5971 122.46L95.0607 123.74C95.8015 124.629 96.872 125 98.0789 125V123ZM96.6426 122.519C96.333 122.085 96.2028 121.53 96.3595 120.746L94.3983 120.354C94.155 121.57 94.3248 122.715 95.0152 123.681L96.6426 122.519ZM96.3527 120.777L97.4027 116.277L95.4551 115.823L94.4051 120.323L96.3527 120.777ZM97.4141 116.221C97.7484 114.299 99.2 112.301 102.102 110.269L100.955 108.631C97.8578 110.799 95.9095 113.201 95.4437 115.879L97.4141 116.221ZM102.164 110.223L141.764 77.6725L140.494 76.1275L100.894 108.677L102.164 110.223ZM141.711 77.7131C150.523 71.4043 156.797 66.203 160.472 62.119L158.986 60.781C155.461 64.697 149.334 69.7957 140.547 76.0869L141.711 77.7131ZM160.472 62.119C164.168 58.0125 166.562 53.6114 167.605 48.9169L165.653 48.4831C164.696 52.7886 162.49 56.8875 158.986 60.781L160.472 62.119ZM167.602 48.929C168.021 47.1477 168.229 45.2704 168.229 43.3H166.229C166.229 45.1296 166.036 46.8523 165.655 48.471L167.602 48.929ZM168.229 43.3C168.229 38.7627 166.739 35.1534 163.664 32.6273L162.394 34.1727C164.919 36.2466 166.229 39.2372 166.229 43.3H168.229ZM163.693 32.6526C160.744 30.0309 156.518 28.8 151.179 28.8V30.8C156.24 30.8 159.914 31.969 162.365 34.1474L163.693 32.6526ZM151.179 28.8C145.065 28.8 139.738 30.6195 135.248 34.2744L136.51 35.8256C140.62 32.4804 145.493 30.8 151.179 30.8V28.8ZM135.248 34.2744C130.784 37.9075 127.535 42.7734 125.482 48.829L127.376 49.471C129.323 43.7266 132.374 39.1925 136.51 35.8256L135.248 34.2744ZM125.519 48.7362C125.086 49.6868 124.501 50.3833 123.774 50.8679L124.884 52.532C125.957 51.8167 126.771 50.8132 127.339 49.5638L125.519 48.7362ZM123.774 50.8679C122.982 51.396 122.323 51.6 121.779 51.6V53.6C122.835 53.6 123.876 53.204 124.884 52.532L123.774 50.8679ZM121.779 51.6H114.579V53.6H121.779V51.6ZM114.579 51.6C113.868 51.6 113.451 51.4077 113.186 51.1429L111.772 52.5571C112.507 53.2923 113.49 53.6 114.579 53.6V51.6ZM113.247 51.2098C112.983 50.8923 112.859 50.4758 113.005 49.8169L111.053 49.3831C110.799 50.5242 110.975 51.6077 111.711 52.4902L113.247 51.2098ZM113 49.8382C114.264 44.6857 116.699 39.7077 120.327 34.9026L118.731 33.6974C114.959 38.6923 112.394 43.9142 111.058 49.3618L113 49.8382ZM120.333 34.8948C123.937 30.0244 128.618 26.0703 134.394 23.0352L133.464 21.2648C127.44 24.4297 122.521 28.5755 118.725 33.7051L120.333 34.8948ZM134.399 23.0323C140.244 19.9152 146.731 18.35 153.879 18.35V16.35C146.427 16.35 139.614 17.9848 133.458 21.2676L134.399 23.0323ZM153.879 18.35C163.251 18.35 170.006 20.4738 174.346 24.5305L175.712 23.0695C170.851 18.5261 163.507 16.35 153.879 16.35V18.35ZM174.346 24.5305C178.717 28.6164 180.929 34.038 180.929 40.9H182.929C182.929 33.562 180.541 27.5836 175.712 23.0695L174.346 24.5305ZM180.929 40.9C180.929 43.7468 180.683 46.1651 180.206 48.1684L182.152 48.6316C182.675 46.4349 182.929 43.8532 182.929 40.9H180.929ZM180.2 48.1948C178.935 54.2298 176.259 59.7334 172.157 64.7143L173.701 65.9857C177.999 60.7665 180.823 54.9702 182.158 48.6052L180.2 48.1948ZM172.15 64.7234C168.126 69.7284 162.253 75.0183 154.496 80.5877L155.662 82.2123C163.505 76.5817 169.532 71.1716 173.708 65.9766L172.15 64.7234ZM154.436 80.6344L118.736 110.634L120.022 112.166L155.722 82.1656L154.436 80.6344ZM119.379 112.4H166.479V110.4H119.379V112.4ZM166.479 112.4C167.272 112.4 167.702 112.629 167.961 112.94L169.497 111.66C168.756 110.771 167.686 110.4 166.479 110.4V112.4ZM167.961 112.94C168.2 113.227 168.366 113.732 168.195 114.671L170.163 115.029C170.392 113.768 170.258 112.573 169.497 111.66L167.961 112.94ZM168.195 114.669L167.145 120.369L169.112 120.731L170.162 115.031L168.195 114.669ZM167.148 120.354C167.001 121.09 166.599 121.739 165.865 122.311L167.093 123.889C168.158 123.061 168.857 122.01 169.109 120.746L167.148 120.354ZM165.879 122.3C165.252 122.77 164.563 123 163.779 123V125C164.995 125 166.106 124.63 167.079 123.9L165.879 122.3ZM163.779 123H98.0789V125H163.779V123ZM184.477 123.1L183.663 123.681L183.684 123.712L183.708 123.74L184.477 123.1ZM184.027 120.55L183.047 120.351L183.046 120.354L184.027 120.55ZM186.127 110.2L187.107 110.399L187.107 110.396L186.127 110.2ZM202.927 107.65L202.113 108.231L202.139 108.267L202.167 108.301L202.927 107.65ZM203.527 110.2L204.504 110.412L204.506 110.404L204.507 110.396L203.527 110.2ZM201.277 120.55L200.299 120.338L200.298 120.346L200.296 120.354L201.277 120.55ZM199.777 123.1L200.377 123.9L200.407 123.877L200.435 123.853L199.777 123.1ZM186.727 123C185.933 123 185.504 122.771 185.245 122.46L183.708 123.74C184.449 124.629 185.52 125 186.727 125V123ZM185.29 122.519C184.981 122.085 184.85 121.53 185.007 120.746L183.046 120.354C182.803 121.57 182.972 122.715 183.663 123.681L185.29 122.519ZM185.007 120.749L187.107 110.399L185.147 110.001L183.047 120.351L185.007 120.749ZM187.107 110.396C187.262 109.622 187.643 108.964 188.285 108.403L186.968 106.897C186.01 107.736 185.391 108.778 185.146 110.004L187.107 110.396ZM188.285 108.403C188.915 107.851 189.585 107.6 190.327 107.6V105.6C189.068 105.6 187.938 106.049 186.968 106.897L188.285 108.403ZM190.327 107.6H200.677V105.6H190.327V107.6ZM200.677 107.6C201.414 107.6 201.833 107.839 202.113 108.231L203.74 107.069C203.02 106.061 201.939 105.6 200.677 105.6V107.6ZM202.167 108.301C202.544 108.741 202.693 109.269 202.546 110.004L204.507 110.396C204.76 109.131 204.509 107.959 203.686 106.999L202.167 108.301ZM202.549 109.988L200.299 120.338L202.254 120.762L204.504 110.412L202.549 109.988ZM200.296 120.354C200.141 121.128 199.76 121.786 199.118 122.347L200.435 123.853C201.393 123.014 202.012 121.972 202.257 120.746L200.296 120.354ZM199.177 122.3C198.55 122.77 197.86 123 197.077 123V125C198.293 125 199.403 124.63 200.377 123.9L199.177 122.3ZM197.077 123H186.727V125H197.077V123Z" fill="#5D6268"/>
</svg>
