<svg xmlns="http://www.w3.org/2000/svg" viewBox="0 0 90.5 49.58"><defs><style>.cls-1{fill:none;stroke:#5d6268;}</style></defs><title>Site hero</title><g id="Layer_2" data-name="Layer 2"><g id="Layer_1-2" data-name="Layer 1"><path class="cls-1" d="M5.37,21.78a.68.68,0,0,1-.14-.59L9.47,1.33A1,1,0,0,1,9.83.75.92.92,0,0,1,10.46.5h8.7A11,11,0,0,1,25.23,2a5,5,0,0,1,2.38,4.43A7.33,7.33,0,0,1,27.43,8a8.53,8.53,0,0,1-3.27,5.55,11.89,11.89,0,0,1-6.91,1.74H14.48l-1.26,5.87a1,1,0,0,1-.35.59,1,1,0,0,1-.63.24H5.91A.66.66,0,0,1,5.37,21.78ZM17.68,9.63a1.76,1.76,0,0,0,1.08-.41A2.14,2.14,0,0,0,19.47,8a3.71,3.71,0,0,0,.06-.55q0-1.2-1.11-1.2H16.27l-.74,3.41Z"/><path class="cls-1" d="M24.42,21.87a.54.54,0,0,1-.15-.4.82.82,0,0,1,.09-.34l11-19.62A2.53,2.53,0,0,1,36,.81,1.47,1.47,0,0,1,37,.5H43.8a1.13,1.13,0,0,1,.83.29,1.33,1.33,0,0,1,.33.72l2.71,19.62a.78.78,0,0,1-.22.65.84.84,0,0,1-.61.24H41.3c-.65,0-1-.25-1-.76l-.31-2H33.34l-1.17,2a2,2,0,0,1-.52.55,1.46,1.46,0,0,1-.83.21h-6A.57.57,0,0,1,24.42,21.87Zm11.75-8.64h3.47l-.52-5.72Z"/><path class="cls-1" d="M54.69,21.61a7.29,7.29,0,0,1-3.27-2.21,5.6,5.6,0,0,1-1.23-3.68,7.86,7.86,0,0,1,.21-1.81L53.08,1.33a1,1,0,0,1,.35-.58A.94.94,0,0,1,54.06.5h6a.67.67,0,0,1,.67.83L58.09,13.78a3.46,3.46,0,0,0-.09.74c0,1.09.62,1.63,1.87,1.63a2.69,2.69,0,0,0,1.83-.6,3.09,3.09,0,0,0,.94-1.77L65.31,1.33a1,1,0,0,1,.36-.58A.92.92,0,0,1,66.3.5h6a.63.63,0,0,1,.53.25.66.66,0,0,1,.14.58L70.33,13.91A10.49,10.49,0,0,1,66.7,20.3c-1.78,1.36-4.29,2-7.5,2A13.5,13.5,0,0,1,54.69,21.61Z"/><path class="cls-1" d="M73.17,21.78a.72.72,0,0,1-.14-.59L77.28,1.33a.94.94,0,0,1,.35-.58A.92.92,0,0,1,78.26.5h6.15A.66.66,0,0,1,85,.75a.7.7,0,0,1,.14.58l-3,14h7.23a.66.66,0,0,1,.54.25.6.6,0,0,1,.1.58l-1.32,5a1,1,0,0,1-.35.59,1,1,0,0,1-.63.24h-14A.66.66,0,0,1,73.17,21.78Z"/><path class="cls-1" d="M3.1,47.39A5.66,5.66,0,0,1,.5,42.31a9.88,9.88,0,0,1,.15-1.56c.25-1.48.64-3.3,1.17-5.48q2.1-8.33,11.44-8.33a15,15,0,0,1,4.57.69,8.13,8.13,0,0,1,3.53,2.15,5.07,5.07,0,0,1,1.37,3.62,8.07,8.07,0,0,1-.15,1.41.87.87,0,0,1-.31.48.83.83,0,0,1-.52.2H15.48a.92.92,0,0,1-.68-.19,1.28,1.28,0,0,1-.28-.7,1.88,1.88,0,0,0-.6-1.3,2.18,2.18,0,0,0-1.34-.36,2.67,2.67,0,0,0-1.76.56,3.5,3.5,0,0,0-1,1.93Q9.15,38,8.68,40.59a4.45,4.45,0,0,0-.09.83,1.58,1.58,0,0,0,.47,1.28,2.19,2.19,0,0,0,1.37.38,2.81,2.81,0,0,0,2.65-1.66,2.09,2.09,0,0,1,.53-.71,1.42,1.42,0,0,1,.79-.18h6.27a.58.58,0,0,1,.45.2.54.54,0,0,1,.11.48,9.12,9.12,0,0,1-4,5.93,13.66,13.66,0,0,1-7.45,1.94A12.11,12.11,0,0,1,3.1,47.39Z"/><path class="cls-1" d="M22.89,48.67a.54.54,0,0,1-.16-.4.79.79,0,0,1,.09-.34l11-19.62a2.69,2.69,0,0,1,.65-.7,1.47,1.47,0,0,1,1-.31h6.83a1.08,1.08,0,0,1,.83.29,1.31,1.31,0,0,1,.34.72l2.7,19.62a.81.81,0,0,1-.21.65.86.86,0,0,1-.62.24H39.77c-.66,0-1-.26-1.05-.77l-.31-2H31.8l-1.16,2a2,2,0,0,1-.53.56,1.44,1.44,0,0,1-.83.21h-6A.54.54,0,0,1,22.89,48.67ZM34.63,40h3.48l-.53-5.72Z"/><path class="cls-1" d="M50.84,48.58A.68.68,0,0,1,50.7,48l4.24-19.86a1,1,0,0,1,.36-.59,1,1,0,0,1,.63-.24H62.2a.68.68,0,0,1,.54.24.72.72,0,0,1,.14.59L58.63,48a1,1,0,0,1-.35.59,1,1,0,0,1-.63.24H51.38A.66.66,0,0,1,50.84,48.58Z"/><path class="cls-1" d="M63.66,48.58a.72.72,0,0,1-.14-.59l4.24-19.86a1,1,0,0,1,.36-.59,1,1,0,0,1,.63-.24h4.86a1,1,0,0,1,1.1.7l3.42,8.52,1.78-8.39a1,1,0,0,1,.35-.59,1,1,0,0,1,.63-.24h5.57a.67.67,0,0,1,.54.24.72.72,0,0,1,.14.59L82.89,48a1,1,0,0,1-.35.59,1,1,0,0,1-.63.24H77.05a1.08,1.08,0,0,1-.75-.21,2.11,2.11,0,0,1-.39-.5l-3.5-7.84L70.75,48a1,1,0,0,1-.36.59,1,1,0,0,1-.63.24H64.2A.66.66,0,0,1,63.66,48.58Z"/></g></g></svg>