<svg width="247" height="165" viewBox="0 0 247 165" fill="none" xmlns="http://www.w3.org/2000/svg">
<path d="M5.048 70.232L3.63379 71.6462L3.63379 71.6462L5.048 70.232ZM5.048 4.568L3.63379 3.15378L3.63378 3.15379L5.048 4.568ZM57.08 9.752L55.8548 11.3329L55.8644 11.3402L57.08 9.752ZM57.176 44.504L58.3499 46.1232L58.3565 46.1184L58.3631 46.1136L57.176 44.504ZM29.24 50.072V48.072H27.24V50.072H29.24ZM28.472 70.232L27.0578 68.8178H27.0578L28.472 70.232ZM38.552 31.064L39.9129 32.5296L39.94 32.5044L39.9662 32.4782L38.552 31.064ZM28.76 21.656V19.656H26.76V21.656H28.76ZM28.76 32.312H26.76V34.312H28.76V32.312ZM6.872 69C6.71512 69 6.61111 68.9667 6.46221 68.8178L3.63379 71.6462C4.50889 72.5213 5.62088 73 6.872 73V69ZM6.46221 68.8178C6.31332 68.6689 6.28 68.5649 6.28 68.408H2.28C2.28 69.6591 2.75868 70.7711 3.63379 71.6462L6.46221 68.8178ZM6.28 68.408V6.392H2.28V68.408H6.28ZM6.28 6.392C6.28 6.23512 6.31332 6.13111 6.46222 5.98221L3.63378 3.15379C2.75868 4.02889 2.28 5.14087 2.28 6.392H6.28ZM6.46221 5.98221C6.61111 5.83331 6.71512 5.8 6.872 5.8V1.8C5.62088 1.8 4.50889 2.27868 3.63379 3.15378L6.46221 5.98221ZM6.872 5.8H35.96V1.8H6.872V5.8ZM35.96 5.8C44.6437 5.8 51.198 7.72376 55.8549 11.3328L58.3051 8.17117C52.722 3.84423 45.1963 1.8 35.96 1.8V5.8ZM55.8644 11.3402C60.4589 14.857 62.856 20.0683 62.856 27.32H66.856C66.856 19.0837 64.0691 12.583 58.2956 8.16384L55.8644 11.3402ZM62.856 27.32C62.856 34.5129 60.4892 39.5754 55.9889 42.8944L58.3631 46.1136C64.1028 41.8806 66.856 35.4871 66.856 27.32H62.856ZM56.0021 42.8848C51.3414 46.2638 44.7361 48.072 35.96 48.072V52.072C45.2319 52.072 52.7706 50.1682 58.3499 46.1232L56.0021 42.8848ZM35.96 48.072H29.24V52.072H35.96V48.072ZM27.24 50.072V68.408H31.24V50.072H27.24ZM27.24 68.408C27.24 68.5649 27.2067 68.6689 27.0578 68.8178L29.8862 71.6462C30.7613 70.7711 31.24 69.6591 31.24 68.408H27.24ZM27.0578 68.8178C26.9089 68.9667 26.8049 69 26.648 69V73C27.8991 73 29.0111 72.5213 29.8862 71.6462L27.0578 68.8178ZM26.648 69H6.872V73H26.648V69ZM35.48 34.312C37.1698 34.312 38.6719 33.682 39.9129 32.5296L37.1911 29.5984C36.6401 30.11 36.0942 30.312 35.48 30.312V34.312ZM39.9662 32.4782C41.3571 31.0873 41.896 29.1887 41.896 27.128H37.896C37.896 28.5233 37.5389 29.2487 37.1378 29.6498L39.9662 32.4782ZM41.896 27.128C41.896 25.3244 41.4601 23.6556 40.5191 22.2015L37.1609 24.3745C37.628 25.0964 37.896 25.9876 37.896 27.128H41.896ZM40.5191 22.2015C39.3738 20.4315 37.5486 19.656 35.48 19.656V23.656C36.4834 23.656 36.8982 23.9685 37.1609 24.3745L40.5191 22.2015ZM35.48 19.656H28.76V23.656H35.48V19.656ZM26.76 21.656V32.312H30.76V21.656H26.76ZM28.76 34.312H35.48V30.312H28.76V34.312ZM66.8135 70.424L65.295 71.7256L65.3951 71.8424L65.5119 71.9425L66.8135 70.424ZM66.3335 68.216L64.4455 67.5561L64.4407 67.5698L64.4361 67.5835L66.3335 68.216ZM87.7415 6.96799L89.6295 7.6279L89.642 7.59226L89.6531 7.55617L87.7415 6.96799ZM89.1815 4.75999L87.8362 3.28012L87.8362 3.28012L89.1815 4.75999ZM115.774 4.75999L117.119 3.28012L117.119 3.28011L115.774 4.75999ZM117.214 6.96799L115.302 7.55617L115.313 7.59226L115.326 7.6279L117.214 6.96799ZM138.622 68.216L140.519 67.5835L140.514 67.5698L140.509 67.5561L138.622 68.216ZM138.046 70.424L136.631 69.0098L136.631 69.0098L138.046 70.424ZM115.102 68.6L116.983 67.9226L116.981 67.9165L115.102 68.6ZM112.798 62.264L114.677 61.5805L114.198 60.264H112.798V62.264ZM92.1575 62.264V60.264H90.7567L90.2779 61.5805L92.1575 62.264ZM89.8535 68.6L87.9739 67.9165L87.9717 67.9226L89.8535 68.6ZM97.0535 43.544L95.1384 42.9674L94.3627 45.544H97.0535V43.544ZM107.902 43.544V45.544H110.606L109.814 42.958L107.902 43.544ZM102.43 25.688L104.342 25.102L102.413 18.8068L100.514 25.1114L102.43 25.688ZM68.3495 69C68.2635 69 68.2103 68.9871 68.1151 68.9055L65.5119 71.9425C66.3127 72.6289 67.2835 73 68.3495 73V69ZM68.332 69.1224C68.2504 69.0272 68.2375 68.974 68.2375 68.888H64.2375C64.2375 69.954 64.6086 70.9248 65.295 71.7256L68.332 69.1224ZM68.2375 68.888C68.2375 68.8426 68.2404 68.8179 68.2414 68.8108C68.2424 68.8039 68.2409 68.8182 68.2309 68.8485L64.4361 67.5835C64.2889 68.0253 64.2375 68.4713 64.2375 68.888H68.2375ZM68.2215 68.8759L89.6295 7.6279L85.8535 6.30808L64.4455 67.5561L68.2215 68.8759ZM89.6531 7.55617C89.794 7.0982 90.0627 6.66187 90.5269 6.23987L87.8362 3.28012C86.8924 4.13812 86.201 5.1738 85.8299 6.37982L89.6531 7.55617ZM90.5268 6.23987C90.7691 6.01968 91.2 5.8 92.0615 5.8V1.8C90.491 1.8 89.0019 2.22031 87.8362 3.28012L90.5268 6.23987ZM92.0615 5.8H112.894V1.8H92.0615V5.8ZM112.894 5.8C113.755 5.8 114.186 6.01968 114.428 6.23988L117.119 3.28011C115.953 2.22031 114.464 1.8 112.894 1.8V5.8ZM114.428 6.23987C114.892 6.66187 115.161 7.0982 115.302 7.55617L119.125 6.37982C118.754 5.1738 118.063 4.13812 117.119 3.28012L114.428 6.23987ZM115.326 7.6279L136.734 68.8759L140.509 67.5561L119.102 6.30808L115.326 7.6279ZM136.724 68.8485C136.714 68.8182 136.713 68.8039 136.714 68.8109C136.715 68.8179 136.718 68.8426 136.718 68.888H140.718C140.718 68.4713 140.666 68.0253 140.519 67.5835L136.724 68.8485ZM136.718 68.888C136.718 68.9015 136.716 68.9062 136.717 68.9047C136.717 68.903 136.718 68.9016 136.717 68.9024C136.717 68.9034 136.713 68.9122 136.701 68.9291C136.689 68.9463 136.668 68.9736 136.631 69.0098L139.46 71.8382C140.242 71.0563 140.718 70.05 140.718 68.888H136.718ZM136.631 69.0098C136.624 69.0169 136.624 69.0162 136.63 69.0119C136.633 69.0099 136.637 69.0076 136.642 69.0052C136.646 69.0028 136.651 69.0007 136.655 68.999C136.664 68.9955 136.667 68.9953 136.662 68.9963C136.656 68.9973 136.638 69 136.605 69V73C137.676 73 138.676 72.6218 139.46 71.8382L136.631 69.0098ZM136.605 69H118.846V73H136.605V69ZM118.846 69C118.157 69 117.768 68.8569 117.549 68.7162C117.349 68.5883 117.145 68.3717 116.983 67.9226L113.22 69.2774C113.634 70.4283 114.342 71.4117 115.39 72.0838C116.419 72.7431 117.614 73 118.846 73V69ZM116.981 67.9165L114.677 61.5805L110.918 62.9475L113.222 69.2835L116.981 67.9165ZM112.798 60.264H92.1575V64.264H112.798V60.264ZM90.2779 61.5805L87.9739 67.9165L91.7331 69.2835L94.0371 62.9475L90.2779 61.5805ZM87.9717 67.9226C87.81 68.3717 87.6058 68.5883 87.4062 68.7162C87.1867 68.8569 86.7983 69 86.1095 69V73C87.3408 73 88.5363 72.7431 89.5648 72.0838C90.6132 71.4117 91.321 70.4283 91.7353 69.2774L87.9717 67.9226ZM86.1095 69H68.3495V73H86.1095V69ZM97.0535 45.544H107.902V41.544H97.0535V45.544ZM109.814 42.958L104.342 25.102L100.517 26.274L105.989 44.13L109.814 42.958ZM100.514 25.1114L95.1384 42.9674L98.9686 44.1206L104.345 26.2646L100.514 25.1114ZM154.781 65.432L153.538 66.999L153.548 67.0068L153.558 67.0146L154.781 65.432ZM169.661 4.568L168.247 5.98221V5.98221L169.661 4.568ZM172.157 50.84L170.67 52.1779L170.706 52.217L170.743 52.2542L172.157 50.84ZM182.813 50.84L181.363 49.4625L181.361 49.4645L182.813 50.84ZM185.405 4.568L183.991 3.15378L183.991 3.15379L185.405 4.568ZM207.869 4.568L206.455 5.9822V5.98221L207.869 4.568ZM200.285 65.432L201.517 67.0078L201.522 67.0034L201.528 66.999L200.285 65.432ZM177.629 69.96C168.318 69.96 161.181 67.8501 156.004 63.8494L153.558 67.0146C159.645 71.7179 167.74 73.96 177.629 73.96V69.96ZM156.024 63.865C151.045 59.9165 148.429 53.9709 148.429 45.656H144.429C144.429 54.8771 147.381 62.1155 153.538 66.999L156.024 63.865ZM148.429 45.656V6.392H144.429V45.656H148.429ZM148.429 6.392C148.429 6.23512 148.462 6.13111 148.611 5.98221L145.783 3.15378C144.908 4.02889 144.429 5.14087 144.429 6.392H148.429ZM148.611 5.98221C148.76 5.83331 148.864 5.8 149.021 5.8V1.8C147.77 1.8 146.658 2.27868 145.783 3.15378L148.611 5.98221ZM149.021 5.8H167.837V1.8H149.021V5.8ZM167.837 5.8C167.994 5.8 168.098 5.83331 168.247 5.98221L171.075 3.15379C170.2 2.27868 169.088 1.8 167.837 1.8V5.8ZM168.247 5.98221C168.396 6.13111 168.429 6.23512 168.429 6.392H172.429C172.429 5.14087 171.95 4.02889 171.075 3.15378L168.247 5.98221ZM168.429 6.392V45.272H172.429V6.392H168.429ZM168.429 45.272C168.429 47.9952 169.074 50.4036 170.67 52.1779L173.644 49.5021C172.936 48.7164 172.429 47.4128 172.429 45.272H168.429ZM170.743 52.2542C172.457 53.9685 174.839 54.664 177.533 54.664V50.664C175.491 50.664 174.289 50.1435 173.571 49.4258L170.743 52.2542ZM177.533 54.664C180.218 54.664 182.601 53.9718 184.265 52.2155L181.361 49.4645C180.721 50.1401 179.584 50.664 177.533 50.664V54.664ZM184.263 52.2175C185.947 50.4445 186.637 48.0206 186.637 45.272H182.637C182.637 47.3874 182.111 48.6755 181.363 49.4625L184.263 52.2175ZM186.637 45.272V6.392H182.637V45.272H186.637ZM186.637 6.392C186.637 6.23512 186.67 6.13111 186.819 5.98221L183.991 3.15379C183.116 4.02889 182.637 5.14087 182.637 6.392H186.637ZM186.819 5.98221C186.968 5.83331 187.072 5.8 187.229 5.8V1.8C185.978 1.8 184.866 2.27868 183.991 3.15378L186.819 5.98221ZM187.229 5.8H206.045V1.8H187.229V5.8ZM206.045 5.8C206.202 5.8 206.306 5.83331 206.455 5.9822L209.283 3.15379C208.408 2.27868 207.296 1.8 206.045 1.8V5.8ZM206.455 5.98221C206.604 6.13111 206.637 6.23512 206.637 6.392H210.637C210.637 5.14087 210.158 4.02889 209.283 3.15378L206.455 5.98221ZM206.637 6.392V45.656H210.637V6.392H206.637ZM206.637 45.656C206.637 53.9709 204.021 59.9165 199.042 63.865L201.528 66.999C207.685 62.1155 210.637 54.8771 210.637 45.656H206.637ZM199.053 63.8562C193.942 67.8511 186.874 69.96 177.629 69.96V73.96C187.456 73.96 195.492 71.7169 201.517 67.0078L199.053 63.8562ZM244.07 3.608L242.656 5.02221V5.02221L244.07 3.608ZM244.07 70.232L242.656 68.8178L244.07 70.232ZM225.062 69C224.905 69 224.801 68.9667 224.652 68.8178L221.824 71.6462C222.699 72.5213 223.811 73 225.062 73V69ZM224.652 68.8178C224.503 68.6689 224.47 68.5649 224.47 68.408H220.47C220.47 69.6591 220.949 70.7711 221.824 71.6462L224.652 68.8178ZM224.47 68.408V5.432H220.47V68.408H224.47ZM224.47 5.432C224.47 5.27512 224.503 5.17111 224.652 5.02221L221.824 2.19379C220.949 3.06889 220.47 4.18087 220.47 5.432H224.47ZM224.652 5.02221C224.801 4.87331 224.905 4.84 225.062 4.84V0.839996C223.811 0.839996 222.699 1.31868 221.824 2.19379L224.652 5.02221ZM225.062 4.84H242.246V0.839996H225.062V4.84ZM242.246 4.84C242.403 4.84 242.507 4.87331 242.656 5.02221L245.484 2.19379C244.609 1.31868 243.497 0.839996 242.246 0.839996V4.84ZM242.656 5.02221C242.805 5.17111 242.838 5.27512 242.838 5.432H246.838C246.838 4.18087 246.359 3.06889 245.484 2.19378L242.656 5.02221ZM242.838 5.432V68.408H246.838V5.432H242.838ZM242.838 68.408C242.838 68.5649 242.805 68.6689 242.656 68.8178L245.484 71.6462C246.359 70.7711 246.838 69.6591 246.838 68.408H242.838ZM242.656 68.8178C242.507 68.9667 242.403 69 242.246 69V73C243.497 73 244.609 72.5213 245.484 71.6462L242.656 68.8178ZM242.246 69H225.062V73H242.246V69ZM11.672 156.624L10.4691 158.222L10.4749 158.226L10.4807 158.23L11.672 156.624ZM2.552 136.944L0.553329 137.018L0.553888 137.031L2.552 136.944ZM2.552 119.856L0.554002 119.767L0.553597 119.776L0.553274 119.785L2.552 119.856ZM11.864 100.464L13.0612 102.066L13.0724 102.058L11.864 100.464ZM50.552 96.432L49.8746 98.3138L49.8825 98.3166L50.552 96.432ZM62.36 104.592L60.8061 105.851L60.818 105.866L60.8302 105.88L62.36 104.592ZM67.064 118.416H69.064V118.405L69.0639 118.393L67.064 118.416ZM66.392 119.952L64.9778 118.538H64.9778L66.392 119.952ZM43.064 119.952L41.7624 121.471L41.8119 121.513L41.864 121.552L43.064 119.952ZM41.816 117.744L43.702 117.078L43.6979 117.067L43.6938 117.055L41.816 117.744ZM39.032 113.712L37.9226 115.376H37.9226L39.032 113.712ZM29.432 114.384L30.8075 115.836L30.8271 115.817L30.8462 115.798L29.432 114.384ZM27.512 120.336L29.5106 120.41L29.5112 120.396L29.5115 120.381L27.512 120.336ZM27.512 136.464L29.5115 136.419L29.5112 136.407L29.5108 136.395L27.512 136.464ZM29.432 142.512L28.0178 143.926L28.0369 143.945L28.0565 143.964L29.432 142.512ZM41.816 139.056L43.7134 139.688L43.7247 139.655L43.7347 139.62L41.816 139.056ZM42.968 136.848L41.768 135.248L41.7159 135.287L41.6664 135.329L42.968 136.848ZM66.392 136.944L64.8735 138.246L64.9736 138.362L65.0904 138.463L66.392 136.944ZM67.064 138.384L69.0639 138.407L69.064 138.395V138.384H67.064ZM62.36 152.304L60.8192 151.029L60.8169 151.032L62.36 152.304ZM50.552 160.368L49.8825 158.483L49.8746 158.486L50.552 160.368ZM34.712 160.96C25.3239 160.96 18.1092 158.908 12.8633 155.018L10.4807 158.23C16.6268 162.788 24.7721 164.96 34.712 164.96V160.96ZM12.8749 155.026C7.76903 151.182 4.91496 145.249 4.55011 136.857L0.553888 137.031C0.957038 146.303 4.18297 153.49 10.4691 158.222L12.8749 155.026ZM4.55063 136.87C4.48811 135.182 4.456 132.398 4.456 128.496H0.456C0.456 132.402 0.487888 135.25 0.55337 137.018L4.55063 136.87ZM4.456 128.496C4.456 124.53 4.4881 121.681 4.55073 119.927L0.553274 119.785C0.487905 121.615 0.456 124.526 0.456 128.496H4.456ZM4.55 119.945C4.91258 111.848 7.80611 105.993 13.0612 102.066L10.6668 98.8619C4.27389 103.639 0.959422 110.712 0.554002 119.767L4.55 119.945ZM13.0724 102.058C18.4601 97.9725 25.6142 95.84 34.712 95.84V91.84C24.9938 91.84 16.9159 94.1235 10.6556 98.8703L13.0724 102.058ZM34.712 95.84C40.2706 95.84 45.318 96.6734 49.8746 98.3138L51.2294 94.5502C46.186 92.7346 40.6734 91.84 34.712 91.84V95.84ZM49.8825 98.3166C54.4287 99.9317 58.0484 102.448 60.8061 105.851L63.9139 103.333C60.6556 99.312 56.4033 96.3883 51.2215 94.5474L49.8825 98.3166ZM60.8302 105.88C63.555 109.116 65.0045 113.253 65.0641 118.439L69.0639 118.393C68.9955 112.443 67.309 107.364 63.8898 103.304L60.8302 105.88ZM65.064 118.416C65.064 118.43 65.0628 118.434 65.0631 118.433C65.0634 118.431 65.064 118.43 65.0637 118.43C65.0632 118.431 65.0593 118.44 65.0475 118.457C65.0355 118.474 65.014 118.502 64.9778 118.538L67.8062 121.366C68.5881 120.584 69.064 119.578 69.064 118.416H65.064ZM64.9778 118.538C64.9706 118.545 64.9701 118.544 64.9766 118.54C64.9796 118.538 64.9835 118.536 64.988 118.533C64.9926 118.531 64.9971 118.529 65.0012 118.527C65.0102 118.523 65.0135 118.523 65.0082 118.524C65.0025 118.525 64.9847 118.528 64.952 118.528V122.528C66.0227 122.528 67.0226 122.15 67.8062 121.366L64.9778 118.538ZM64.952 118.528H45.368V122.528H64.952V118.528ZM45.368 118.528C44.9745 118.528 44.696 118.49 44.5091 118.444C44.3243 118.398 44.2627 118.351 44.264 118.352L41.864 121.552C42.8748 122.31 44.1517 122.528 45.368 122.528V118.528ZM44.3656 118.433C44.3765 118.443 44.2961 118.374 44.1571 118.128C44.0231 117.891 43.8681 117.549 43.702 117.078L39.93 118.41C40.3388 119.568 40.8968 120.729 41.7624 121.471L44.3656 118.433ZM43.6938 117.055C42.9101 114.918 41.779 113.14 40.1414 112.048L37.9226 115.376C38.589 115.82 39.3139 116.73 39.9382 118.433L43.6938 117.055ZM40.1414 112.048C38.5767 111.005 36.6878 110.56 34.616 110.56V114.56C36.1282 114.56 37.1833 114.883 37.9226 115.376L40.1414 112.048ZM34.616 110.56C32.0127 110.56 29.7125 111.275 28.0178 112.97L30.8462 115.798C31.5835 115.061 32.7393 114.56 34.616 114.56V110.56ZM28.0565 112.932C26.2604 114.634 25.5808 117.284 25.5125 120.291L29.5115 120.381C29.5712 117.756 30.1716 116.438 30.8075 115.836L28.0565 112.932ZM25.5134 120.262C25.4479 122.029 25.416 124.716 25.416 128.304H29.416C29.416 124.724 29.4481 122.099 29.5106 120.41L25.5134 120.262ZM25.416 128.304C25.416 131.894 25.448 134.642 25.5132 136.533L29.5108 136.395C29.448 134.574 29.416 131.882 29.416 128.304H25.416ZM25.5125 136.509C25.5812 139.529 26.2654 142.174 28.0178 143.926L30.8462 141.098C30.1666 140.418 29.5709 139.031 29.5115 136.419L25.5125 136.509ZM28.0565 143.964C29.755 145.573 32.0409 146.24 34.616 146.24V142.24C32.7111 142.24 31.541 141.755 30.8075 141.06L28.0565 143.964ZM34.616 146.24C36.76 146.24 38.7076 145.728 40.3206 144.567C41.9339 143.406 43.0358 141.721 43.7134 139.688L39.9186 138.424C39.4442 139.847 38.7701 140.754 37.9834 141.321C37.1964 141.888 36.12 142.24 34.616 142.24V146.24ZM43.7347 139.62C43.8704 139.159 44.0026 138.833 44.1172 138.613C44.2357 138.386 44.3007 138.34 44.2696 138.367L41.6664 135.329C40.7591 136.107 40.2418 137.32 39.8973 138.492L43.7347 139.62ZM44.168 138.448C44.1529 138.459 44.2115 138.411 44.4187 138.361C44.626 138.311 44.934 138.272 45.368 138.272V134.272C44.1206 134.272 42.7948 134.478 41.768 135.248L44.168 138.448ZM45.368 138.272H64.952V134.272H45.368V138.272ZM64.952 138.272C64.9658 138.272 64.9642 138.273 64.951 138.27C64.9372 138.268 64.9185 138.262 64.8982 138.252C64.8781 138.243 64.8644 138.234 64.8581 138.229C64.8523 138.224 64.8581 138.228 64.8735 138.246L67.9105 135.642C67.1572 134.764 66.128 134.272 64.952 134.272V138.272ZM65.0904 138.463C65.1084 138.478 65.1118 138.484 65.1073 138.478C65.1024 138.472 65.093 138.458 65.0836 138.438C65.0742 138.418 65.0685 138.399 65.0655 138.385C65.0627 138.372 65.064 138.37 65.064 138.384H69.064C69.064 137.208 68.5724 136.179 67.6936 135.425L65.0904 138.463ZM65.0641 138.361C65.0045 143.546 63.5551 147.723 60.8192 151.029L63.9008 153.579C67.3089 149.461 68.9955 144.358 69.0639 138.407L65.0641 138.361ZM60.8169 151.032C58.0602 154.375 54.4376 156.865 49.8825 158.483L51.2215 162.253C56.3945 160.415 60.6438 157.529 63.9031 153.576L60.8169 151.032ZM49.8746 158.486C45.318 160.127 40.2706 160.96 34.712 160.96V164.96C40.6734 164.96 46.186 164.065 51.2294 162.25L49.8746 158.486ZM69.911 161.424L68.3925 162.726L68.4926 162.842L68.6094 162.943L69.911 161.424ZM69.431 159.216L67.543 158.556L67.5382 158.57L67.5336 158.584L69.431 159.216ZM90.839 97.968L92.727 98.6279L92.7394 98.5923L92.7506 98.5562L90.839 97.968ZM92.279 95.76L90.9337 94.2801L90.9336 94.2801L92.279 95.76ZM118.871 95.76L120.216 94.2801L120.216 94.2801L118.871 95.76ZM120.311 97.968L118.399 98.5562L118.411 98.5923L118.423 98.6279L120.311 97.968ZM141.719 159.216L143.616 158.584L143.612 158.57L143.607 158.556L141.719 159.216ZM141.143 161.424L139.729 160.01V160.01L141.143 161.424ZM118.199 159.6L120.081 158.923L120.079 158.917L118.199 159.6ZM115.895 153.264L117.775 152.581L117.296 151.264H115.895V153.264ZM95.255 153.264V151.264H93.8541L93.3754 152.581L95.255 153.264ZM92.951 159.6L91.0714 158.917L91.0692 158.923L92.951 159.6ZM100.151 134.544L98.2359 133.967L97.4602 136.544H100.151V134.544ZM110.999 134.544V136.544H113.704L112.911 133.958L110.999 134.544ZM105.527 116.688L107.439 116.102L105.51 109.807L103.612 116.111L105.527 116.688ZM71.447 160C71.361 160 71.3078 159.987 71.2126 159.905L68.6094 162.943C69.4102 163.629 70.381 164 71.447 164V160ZM71.4295 160.122C71.3479 160.027 71.335 159.974 71.335 159.888H67.335C67.335 160.954 67.7061 161.925 68.3925 162.726L71.4295 160.122ZM71.335 159.888C71.335 159.843 71.3379 159.818 71.3389 159.811C71.3399 159.804 71.3384 159.818 71.3284 159.848L67.5336 158.584C67.3864 159.025 67.335 159.471 67.335 159.888H71.335ZM71.319 159.876L92.727 98.6279L88.951 97.3081L67.543 158.556L71.319 159.876ZM92.7506 98.5562C92.8915 98.0982 93.1601 97.6619 93.6244 97.2399L90.9336 94.2801C89.9899 95.1381 89.2985 96.1738 88.9274 97.3798L92.7506 98.5562ZM93.6243 97.2399C93.8666 97.0197 94.2975 96.8 95.159 96.8V92.8C93.5885 92.8 92.0994 93.2203 90.9337 94.2801L93.6243 97.2399ZM95.159 96.8H115.991V92.8H95.159V96.8ZM115.991 96.8C116.852 96.8 117.283 97.0197 117.526 97.2399L120.216 94.2801C119.051 93.2203 117.562 92.8 115.991 92.8V96.8ZM117.526 97.2399C117.99 97.6619 118.259 98.0982 118.399 98.5562L122.223 97.3798C121.851 96.1738 121.16 95.1381 120.216 94.2801L117.526 97.2399ZM118.423 98.6279L139.831 159.876L143.607 158.556L122.199 97.3081L118.423 98.6279ZM139.822 159.848C139.812 159.818 139.81 159.804 139.811 159.811C139.812 159.818 139.815 159.843 139.815 159.888H143.815C143.815 159.471 143.764 159.025 143.616 158.584L139.822 159.848ZM139.815 159.888C139.815 159.902 139.814 159.906 139.814 159.905C139.814 159.903 139.815 159.902 139.815 159.902C139.814 159.903 139.81 159.912 139.799 159.929C139.787 159.946 139.765 159.974 139.729 160.01L142.557 162.838C143.339 162.056 143.815 161.05 143.815 159.888H139.815ZM139.729 160.01C139.722 160.017 139.721 160.016 139.728 160.012C139.731 160.01 139.734 160.008 139.739 160.005C139.744 160.003 139.748 160.001 139.752 159.999C139.761 159.995 139.765 159.995 139.759 159.996C139.754 159.997 139.736 160 139.703 160V164C140.774 164 141.774 163.622 142.557 162.838L139.729 160.01ZM139.703 160H121.943V164H139.703V160ZM121.943 160C121.254 160 120.866 159.857 120.646 159.716C120.447 159.588 120.242 159.372 120.081 158.923L116.317 160.277C116.732 161.428 117.439 162.412 118.488 163.084C119.516 163.743 120.712 164 121.943 164V160ZM120.079 158.917L117.775 152.581L114.015 153.947L116.319 160.283L120.079 158.917ZM115.895 151.264H95.255V155.264H115.895V151.264ZM93.3754 152.581L91.0714 158.917L94.8306 160.283L97.1346 153.947L93.3754 152.581ZM91.0692 158.923C90.9075 159.372 90.7033 159.588 90.5037 159.716C90.2842 159.857 89.8958 160 89.207 160V164C90.4383 164 91.6338 163.743 92.6623 163.084C93.7107 162.412 94.4185 161.428 94.8328 160.277L91.0692 158.923ZM89.207 160H71.447V164H89.207V160ZM100.151 136.544H110.999V132.544H100.151V136.544ZM112.911 133.958L107.439 116.102L103.615 117.274L109.087 135.13L112.911 133.958ZM103.612 116.111L98.2359 133.967L102.066 135.121L107.442 117.265L103.612 116.111ZM148.812 161.232L147.398 162.646L148.812 161.232ZM148.812 95.568L147.398 94.1538L148.812 95.568ZM172.044 95.568L170.63 96.9822L172.044 95.568ZM172.044 161.232L170.63 159.818V159.818L172.044 161.232ZM150.636 160C150.479 160 150.375 159.967 150.226 159.818L147.398 162.646C148.273 163.521 149.385 164 150.636 164V160ZM150.226 159.818C150.077 159.669 150.044 159.565 150.044 159.408H146.044C146.044 160.659 146.522 161.771 147.398 162.646L150.226 159.818ZM150.044 159.408V97.392H146.044V159.408H150.044ZM150.044 97.392C150.044 97.2351 150.077 97.1311 150.226 96.9822L147.398 94.1538C146.522 95.0289 146.044 96.1409 146.044 97.392H150.044ZM150.226 96.9822C150.375 96.8333 150.479 96.8 150.636 96.8V92.8C149.385 92.8 148.273 93.2787 147.398 94.1538L150.226 96.9822ZM150.636 96.8H170.22V92.8H150.636V96.8ZM170.22 96.8C170.377 96.8 170.481 96.8333 170.63 96.9822L173.458 94.1538C172.583 93.2787 171.471 92.8 170.22 92.8V96.8ZM170.63 96.9822C170.778 97.1311 170.812 97.2351 170.812 97.392H174.812C174.812 96.1409 174.333 95.0289 173.458 94.1538L170.63 96.9822ZM170.812 97.392V159.408H174.812V97.392H170.812ZM170.812 159.408C170.812 159.565 170.778 159.669 170.63 159.818L173.458 162.646C174.333 161.771 174.812 160.659 174.812 159.408H170.812ZM170.63 159.818C170.481 159.967 170.377 160 170.22 160V164C171.471 164 172.583 163.521 173.458 162.646L170.63 159.818ZM170.22 160H150.636V164H170.22V160ZM185.116 161.232L183.701 162.646L185.116 161.232ZM185.116 95.568L183.701 94.1538L185.116 95.568ZM206.044 97.008L204.302 97.9921L204.319 98.0212L204.336 98.0497L206.044 97.008ZM222.268 123.6L220.56 124.642L224.268 130.718V123.6H222.268ZM223.036 95.568L224.45 96.9822L223.036 95.568ZM224.572 161.328L225.799 159.749L224.572 161.328ZM223.132 159.792L221.464 160.897L221.467 160.901L223.132 159.792ZM206.908 135.312L208.575 134.207L204.908 128.674V135.312H206.908ZM206.14 161.232L204.725 159.818V159.818L206.14 161.232ZM186.939 160C186.783 160 186.679 159.967 186.53 159.818L183.701 162.646C184.576 163.521 185.688 164 186.939 164V160ZM186.53 159.818C186.381 159.669 186.348 159.565 186.348 159.408H182.348C182.348 160.659 182.826 161.771 183.701 162.646L186.53 159.818ZM186.348 159.408V97.392H182.348V159.408H186.348ZM186.348 97.392C186.348 97.2351 186.381 97.1311 186.53 96.9822L183.701 94.1538C182.826 95.0289 182.348 96.1409 182.348 97.392H186.348ZM186.53 96.9822C186.679 96.8333 186.783 96.8 186.939 96.8V92.8C185.688 92.8 184.576 93.2787 183.701 94.1538L186.53 96.9822ZM186.939 96.8H202.108V92.8H186.939V96.8ZM202.108 96.8C203.231 96.8 203.851 97.1927 204.302 97.9921L207.785 96.0239C206.572 93.8793 204.568 92.8 202.108 92.8V96.8ZM204.336 98.0497L220.56 124.642L223.975 122.558L207.751 95.9663L204.336 98.0497ZM224.268 123.6V97.392H220.268V123.6H224.268ZM224.268 97.392C224.268 97.2351 224.301 97.1311 224.45 96.9822L221.621 94.1538C220.746 95.0289 220.268 96.1409 220.268 97.392H224.268ZM224.45 96.9822C224.599 96.8333 224.703 96.8 224.86 96.8V92.8C223.608 92.8 222.496 93.2787 221.621 94.1538L224.45 96.9822ZM224.86 96.8H242.236V92.8H224.86V96.8ZM242.236 96.8C242.392 96.8 242.496 96.8333 242.645 96.9822L245.474 94.1538C244.599 93.2787 243.487 92.8 242.236 92.8V96.8ZM242.645 96.9822C242.794 97.1311 242.828 97.2351 242.828 97.392H246.828C246.828 96.1409 246.349 95.0289 245.474 94.1538L242.645 96.9822ZM242.828 97.392V159.408H246.828V97.392H242.828ZM242.828 159.408C242.828 159.565 242.794 159.669 242.645 159.818L245.474 162.646C246.349 161.771 246.828 160.659 246.828 159.408H242.828ZM242.645 159.818C242.496 159.967 242.392 160 242.236 160V164C243.487 164 244.599 163.521 245.474 162.646L242.645 159.818ZM242.236 160H227.068V164H242.236V160ZM227.068 160C226.215 160 225.889 159.819 225.799 159.749L223.344 162.907C224.406 163.733 225.744 164 227.068 164V160ZM225.799 159.749C225.384 159.426 225.054 159.07 224.796 158.683L221.467 160.901C221.977 161.666 222.607 162.334 223.344 162.907L225.799 159.749ZM224.799 158.687L208.575 134.207L205.24 136.417L221.464 160.897L224.799 158.687ZM204.908 135.312V159.408H208.908V135.312H204.908ZM204.908 159.408C204.908 159.565 204.874 159.669 204.725 159.818L207.554 162.646C208.429 161.771 208.908 160.659 208.908 159.408H204.908ZM204.725 159.818C204.576 159.967 204.472 160 204.316 160V164C205.567 164 206.679 163.521 207.554 162.646L204.725 159.818ZM204.316 160H186.939V164H204.316V160Z" fill="#5D6268"/>
</svg>
