<svg width="75" height="77" viewBox="0 0 75 77" fill="none" xmlns="http://www.w3.org/2000/svg">
<path d="M73.0218 63.7256C73.06 63.4965 73.1077 63.2546 73.1587 62.981C73.7569 59.8434 74.5047 55.9357 69.8206 46.908L63.3131 34.3608C62.6894 33.1579 61.5788 32.2287 60.2646 31.8119C59.0936 31.4427 57.9035 31.535 56.8756 32.0219C55.4309 30.3608 52.9107 29.4094 50.8614 30.4722L49.9672 30.9368C49.8176 30.7745 49.6744 30.609 49.509 30.4658V21.5367C50.0118 21.3649 50.3777 20.9067 50.3777 20.3466V16.929C50.3777 16.3689 50.0086 15.9075 49.509 15.7389V5.19007C49.509 4.73185 49.4485 4.27362 49.3276 3.8313C49.3276 3.8313 49.3276 3.8313 49.3276 3.82812C48.7166 1.57516 46.6578 0 44.3189 0H12.9971C10.1363 0 7.807 2.32615 7.807 5.18689V12.4263C7.80381 12.4581 7.7879 12.4835 7.7879 12.5122V34.9749C6.43549 34.3321 4.8667 34.2144 3.422 34.6631C2.39417 34.9813 1.5159 35.5668 0.908112 36.3751C0.777644 36.5533 0.659905 36.7506 0.538984 36.9988C-0.307466 38.7362 0.0298409 40.8587 0.300323 42.5612L0.418062 43.3376C1.39816 50.4433 0.930387 54.0582 0.554894 56.9794C0.268502 59.1942 -0.00198049 61.2881 0.54853 64.0565C1.12768 66.9746 2.12687 69.0779 3.10379 70.9872L1.1595 74.0835C0.787191 74.6785 0.965391 75.4645 1.56045 75.8368C1.77047 75.9673 2.00595 76.0341 2.23507 76.0341C2.65829 76.0341 3.07515 75.8241 3.31381 75.4359L5.64314 71.7159C5.8818 71.3373 5.7577 70.5767 5.55086 70.1758C4.6885 68.5179 3.6193 66.4527 3.04333 63.5569C2.57555 61.199 2.79512 59.4806 3.07833 57.2881C3.47292 54.2333 3.96297 50.4306 2.93832 42.9844L2.81422 42.1602C2.58828 40.7378 2.33371 39.1276 2.97969 37.8516C3.22789 37.5206 3.65112 37.2533 4.17299 37.0942C5.08945 36.8078 6.08864 36.9128 6.90645 37.3838C7.22148 37.5652 7.51424 37.7975 7.7879 38.0807V65.8385C7.7879 67.8305 9.3567 69.3071 11.546 69.3516H48.513C50.5814 70.8122 52.7675 71.8305 55.0268 72.3715L56.5702 75.3468C56.7961 75.7827 57.2384 76.0341 57.6998 76.0341C57.8971 76.0341 58.0976 75.9864 58.2853 75.8909C58.909 75.5632 59.154 74.7963 58.8295 74.1726L57.0125 70.669C56.8343 70.3285 56.5129 70.0835 56.1342 70.0071C53.9958 69.5775 51.9083 68.6484 49.9354 67.2482C49.6172 66.9714 49.283 66.6913 48.933 66.3954C47.0396 64.8107 44.6817 62.8409 42.0978 58.7042L39.6443 54.5992C38.9761 53.3518 38.7947 51.8848 39.167 50.6852C39.3802 49.9978 39.8257 49.4091 40.3826 48.8713L42.8488 54.3319C43.062 54.8029 43.5234 55.0797 44.0102 55.0797C44.1853 55.0797 44.3635 55.0447 44.5353 54.9683C45.1749 54.6788 45.4613 53.9246 45.1717 53.285L42.0341 46.332C42.0309 46.3288 42.0278 46.3256 42.0246 46.3193C42.0246 46.3161 42.0246 46.3129 42.0214 46.3097L33.2196 27.7483C32.6977 26.6504 33.1369 25.3521 34.2156 24.7921L35.0939 24.3338C35.6253 24.057 36.2299 24.0061 36.8059 24.1875C37.3786 24.3688 37.8464 24.7634 38.1233 25.2948L47.3228 43.0321C47.6474 43.6558 48.4143 43.9008 49.038 43.5763C49.6617 43.2517 49.9067 42.4848 49.5822 41.8611L44.5448 32.146L44.723 32.0537C45.404 31.7037 46.1773 31.6369 46.906 31.8723C47.6315 32.1046 48.2202 32.6042 48.5671 33.2757L52.8534 41.5429C53.0793 41.9788 53.5217 42.2302 53.9831 42.2302C54.1804 42.2302 54.3808 42.1857 54.5686 42.087C55.1923 41.7624 55.4373 40.9955 55.1127 40.3718L51.3355 33.0879L52.0388 32.7251C53.0921 32.181 54.7563 33.0847 55.3259 34.1826L58.8136 40.9064C59.0395 41.3424 59.485 41.5938 59.9432 41.5938C60.1405 41.5938 60.341 41.5492 60.5287 41.4506C61.1524 41.126 61.3975 40.3591 61.0729 39.7354L58.2185 34.2335C58.6131 34.1126 59.049 34.0871 59.5009 34.2335C60.1755 34.4467 60.7451 34.9176 61.0602 35.5286L67.5676 48.0758C71.8444 56.3207 71.1889 59.7447 70.6511 62.5641C70.5716 62.981 70.4984 63.3755 70.4443 63.7606C70.4061 64.0215 70.4507 64.2888 70.5748 64.5211L72.5986 68.4256C72.8245 68.8647 73.2669 69.1161 73.7283 69.1161C73.9256 69.1161 74.126 69.0684 74.3138 68.9729C74.9375 68.6484 75.1793 67.8783 74.8579 67.2578L73.0218 63.7256ZM39.5361 59.3788L39.9212 60.0216C39.9244 60.0311 39.9307 60.0407 39.9371 60.0502C41.9514 63.2737 43.8734 65.3103 45.5154 66.8027H11.5715C10.795 66.7868 10.3336 66.4272 10.3336 65.8385V59.3788H39.5361ZM46.9664 16.929V20.3434V29.298C45.805 29.0911 44.6148 29.2471 43.552 29.8008L43.3738 29.893L40.3858 24.1302C39.7971 22.9942 38.8011 22.1541 37.5791 21.769C36.3572 21.384 35.062 21.4954 33.926 22.0809L33.0446 22.5359C30.7407 23.7292 29.8083 26.5009 30.9221 28.8429L39.2529 46.4115C38.0119 47.3598 37.1686 48.5404 36.7359 49.931C36.1694 51.7703 36.4176 53.9628 37.4646 55.9071L38.0151 56.8267H10.3336V55.783C10.3368 55.7543 10.3495 55.7289 10.3495 55.697V38.558V11.3762H46.9633V16.929H46.9664ZM46.9664 8.83045H10.3527V5.19007C10.3527 3.73265 11.5397 2.54571 12.9971 2.54571H44.3221C45.5122 2.54571 46.5591 3.34443 46.8742 4.49319C46.8742 4.49319 46.8742 4.49637 46.8742 4.49955C46.9378 4.72548 46.9664 4.95778 46.9664 5.19007V8.83045V8.83045Z" fill="#F7F7F2"/>
<path d="M30.6707 4.62402H26.4066C25.7924 4.62402 25.2928 5.12362 25.2928 5.73777C25.2928 6.35193 25.7924 6.85152 26.4066 6.85152H30.6707C31.2848 6.85152 31.7844 6.35193 31.7844 5.73777C31.7844 5.12362 31.288 4.62402 30.6707 4.62402Z" fill="#F7F7F2"/>
<path d="M37.3373 6.96246C38.0139 6.96246 38.5624 6.41395 38.5624 5.73733C38.5624 5.06071 38.0139 4.51221 37.3373 4.51221C36.6607 4.51221 36.1122 5.06071 36.1122 5.73733C36.1122 6.41395 36.6607 6.96246 37.3373 6.96246Z" fill="#F7F7F2"/>
<path d="M28.6212 65.1575C29.7882 65.1575 30.7342 64.2115 30.7342 63.0446C30.7342 61.8776 29.7882 60.9316 28.6212 60.9316C27.4543 60.9316 26.5083 61.8776 26.5083 63.0446C26.5083 64.2115 27.4543 65.1575 28.6212 65.1575Z" fill="#F7F7F2"/>
</svg>
